<?xml version="1.0" encoding="utf-8"?>
<!-- Generator: Adobe Illustrator 22.0.1, SVG Export Plug-In . SVG Version: 6.00 Build 0)  -->
<svg version="1.1" id="Layer_1" xmlns="http://www.w3.org/2000/svg" xmlns:xlink="http://www.w3.org/1999/xlink" x="0px" y="0px"
	 viewBox="0 0 1062 562" style="enable-background:new 0 0 1062 562;" xml:space="preserve">
<style type="text/css">
	.st0{fill:#FFFFFF;stroke:#FFFFFF;stroke-width:10.4462;stroke-miterlimit:10;}
</style>
<g>
	<path class="st0" d="M626.1,552.8H432.2c-8.9,0-17.1-4.7-21.5-12.4L338,414.5c-6.1-10.6-21.4-10.6-27.5,0l-72.7,125.8
		c-4.4,7.7-12.7,12.4-21.5,12.4H22.4c-6.2,0-10.1-6.7-7-12.1L317.3,17.9c3.1-5.4,10.8-5.4,14,0L633,540.7
		C636.1,546.1,632.3,552.8,626.1,552.8z"/>
	<path class="st0" d="M1039.4,22.1l-47.7,82.7c-5.3,9.2-15.1,14.8-25.6,14.8H652.3c-6.1,0-9.8,6.5-6.8,11.8l32.2,55.8
		c4.6,8,13.2,13,22.5,13h226.3c4.1,0,6.7,4.5,4.7,8.1l-49.6,86.6c-5.3,9.2-15.1,14.9-25.7,14.9h-93.6c-6.1,0-10,6.7-6.9,12l47,81.4
		c5.3,9.2,5.3,20.4,0,29.6l-64.8,112.2c-3.1,5.4-10.9,5.4-14,0L421.7,22.1c-3.1-5.4,0.8-12.1,7-12.1h603.7
		C1038.6,10,1042.5,16.7,1039.4,22.1z"/>
</g>
</svg>
