<?xml version="1.0" encoding="UTF-8"?>
<svg id="Layer_1" data-name="Layer 1" xmlns="http://www.w3.org/2000/svg" viewBox="0 0 1069.42 886.27">
  <defs>
    <style>
      .cls-1 {
        stroke: #000;
        stroke-miterlimit: 10;
        stroke-width: 5px;
      }
    </style>
  </defs>
  <path class="cls-1" d="m637.07,720.88h-201.13c-9.22,0-17.74-4.92-22.35-12.9l-75.38-130.54c-6.33-10.97-22.15-10.97-28.48,0l-75.38,130.54c-4.61,7.99-13.13,12.9-22.35,12.9H10.88c-6.44,0-10.47-6.96-7.24-12.53L316.73,166.03c3.21-5.57,11.25-5.57,14.48,0l313.1,542.32c3.21,5.57-.8,12.53-7.24,12.53Z"/>
  <path class="cls-1" d="m1065.79,170.37l-49.52,85.79c-5.48,9.5-15.62,15.36-26.59,15.36h-325.43c-6.28,0-10.21,6.78-7.07,12.22l33.4,57.84c4.82,8.34,13.71,13.48,23.34,13.48h234.76c4.3,0,6.99,4.65,4.85,8.38l-51.5,89.86c-5.47,9.55-15.64,15.44-26.64,15.44h-97.07c-6.37,0-10.36,6.9-7.17,12.42l48.74,84.42c5.49,9.5,5.49,21.21,0,30.71l-67.21,116.41c-3.23,5.57-11.27,5.57-14.48,0L425.12,170.37c-3.23-5.57.8-12.53,7.24-12.53h626.19c6.44,0,10.45,6.96,7.24,12.53Z"/>
</svg>