<?xml version="1.0" encoding="utf-8"?>
<!-- Generator: Adobe Illustrator 26.0.0, SVG Export Plug-In . SVG Version: 6.00 Build 0)  -->
<svg version="1.1" id="Layer_1" xmlns="http://www.w3.org/2000/svg" xmlns:xlink="http://www.w3.org/1999/xlink" x="0px" y="0px"
	 viewBox="0 0 1080 1080" style="enable-background:new 0 0 1080 1080;" xml:space="preserve">
<style type="text/css">
	.st0{fill:#FFFFFF;stroke:#FFFFFF;stroke-width:5;stroke-miterlimit:10;}
</style>
<g>
	<path class="st0" d="M643.86,860.18H439.79c-9.36,0-18-4.99-22.68-13.09l-76.48-132.45c-6.42-11.13-22.47-11.13-28.89,0
		l-76.48,132.45c-4.68,8.1-13.32,13.09-22.68,13.09H8.5c-6.53,0-10.62-7.06-7.34-12.71l317.68-550.26c3.25-5.65,11.41-5.65,14.69,0
		L651.2,847.47C654.46,853.12,650.39,860.18,643.86,860.18z"/>
	<path class="st0" d="M1078.85,301.61l-50.25,87.04c-5.57,9.64-15.85,15.58-26.98,15.58H671.44c-6.38,0-10.36,6.88-7.17,12.4
		l33.88,58.69c4.89,8.46,13.91,13.68,23.69,13.68h238.2c4.36,0,7.09,4.71,4.92,8.5l-52.25,91.17c-5.55,9.69-15.87,15.66-27.03,15.66
		h-98.5c-6.47,0-10.51,7-7.28,12.6l49.46,85.66c5.57,9.64,5.57,21.52,0,31.16l-68.19,118.12c-3.28,5.65-11.43,5.65-14.69,0
		L428.8,301.61c-3.28-5.65,0.81-12.71,7.34-12.71h635.36C1078.04,288.9,1082.11,295.95,1078.85,301.61z"/>
</g>
</svg>
